<svg width="109" height="109" viewBox="0 0 109 109" fill="none" xmlns="http://www.w3.org/2000/svg">
<path fill-rule="evenodd" clip-rule="evenodd" d="M95.375 81.75C96.5795 81.75 97.7347 82.2285 98.5865 83.0802C99.4382 83.9319 99.9167 85.0871 99.9167 86.2917C99.9167 87.4962 99.4382 88.6514 98.5865 89.5031C97.7347 90.3548 96.5795 90.8333 95.375 90.8333H9.08334C7.87881 90.8333 6.72362 90.3548 5.87189 89.5031C5.02017 88.6514 4.54167 87.4962 4.54167 86.2917C4.54167 85.0871 5.02017 83.9319 5.87189 83.0802C6.72362 82.2285 7.87881 81.75 9.08334 81.75H95.375ZM54.5 22.7083C69.1423 22.7083 81.4866 27.5906 90.2338 34.4667C98.8221 41.2156 104.458 50.3444 104.458 59.0417C104.458 62.8657 103.287 66.1267 101.22 68.7608C99.2082 71.3314 96.524 73.0754 93.79 74.2744C88.4035 76.627 81.9953 77.2083 77.2083 77.2083H13.5978C12.4064 77.2077 11.2268 76.9722 10.1265 76.5152C9.0263 76.0581 8.02699 75.3886 7.18582 74.5449C6.34465 73.7012 5.67813 72.6999 5.22441 71.5983C4.77069 70.4967 4.53868 69.3164 4.54167 68.125V31.7917C4.54167 26.7913 8.58375 22.7083 13.6159 22.7083H54.5ZM31.7917 31.7917H13.625V45.4167H31.7917V31.7917ZM54.5 31.7917H40.875V45.4167H59.0417V31.9733C58.0411 31.8927 57.0386 31.8397 56.0351 31.8144L54.5 31.7917ZM68.125 33.5311V45.4167H88.7941C87.5039 44.0401 86.1084 42.7661 84.6203 41.6062C80.2513 38.1727 74.6741 35.2706 68.125 33.5311Z" fill="white"/>
</svg>
